<svg width="1310" height="800" viewBox="0 0 1310 800" fill="none" xmlns="http://www.w3.org/2000/svg">
<path d="M621.421 373.097C672.76 541.273 578.225 719.363 410.398 770.701C285.413 808.94 155.117 766.099 75.4521 672.274C77.9306 683.604 80.409 694.579 83.9496 705.909C157.241 946.313 410.752 1081.56 650.454 1007.92C890.156 934.629 1025.06 680.063 951.764 440.013C878.472 199.963 624.961 64.3597 385.259 138.003C374.283 141.544 363.307 145.793 352.685 149.687C474.838 163.495 583.182 247.761 621.421 373.097Z" fill="#5233C8"/>
<path d="M282.933 411.33C399.775 462.314 526.885 454.879 632.751 402.833C596.636 401.77 559.813 394.335 524.406 378.757C377.115 314.319 309.488 142.601 373.574 -5.39389C437.66 -153.389 609.382 -221.014 756.673 -156.576C790.664 -141.705 820.051 -121.17 845.19 -96.3862C810.137 -207.56 729.765 -303.509 614.693 -353.431C404.024 -445.485 159.011 -348.474 67.3075 -137.457C-24.0415 73.9147 72.2643 319.629 282.933 411.33Z" fill="#BAE629"/>
<path d="M735.43 532.765C689.402 498.068 653.995 454.165 629.918 405.659C639.124 469.743 672.406 530.287 727.995 572.065C800.932 626.944 894.052 635.795 973.008 603.93C890.865 608.887 806.597 585.873 735.43 532.765Z" fill="#FF3399"/>
<path d="M629.919 405.671C621.067 341.941 635.938 274.67 677.718 219.083C760.923 107.556 918.482 84.896 1029.66 168.453C1140.84 252.01 1163.5 409.919 1079.94 521.447C1051.26 559.685 1014.08 586.947 973.008 603.588C1074.27 597.215 1172.7 548.355 1238.2 460.195C1357.17 300.87 1324.95 75.3365 1166.33 -43.9803C1007.71 -163.297 782.521 -131.078 663.555 28.2471C579.288 141.191 571.144 287.416 629.919 405.671Z" fill="#FF3399"/>
<path d="M830.32 195.364C789.603 289.543 718.082 360.708 632.752 402.841C747.823 406.028 858.645 340.173 907.506 227.583C956.721 113.931 928.042 -13.883 845.191 -96.3781C874.224 -3.61542 871.746 99.4149 830.32 195.364Z" fill="#BAE629"/>
<path d="M13.8452 559.326C26.9457 602.167 48.1897 640.405 75.4528 672.27C26.2376 453.464 144.142 231.117 352.687 149.684C310.907 145.082 267.357 148.622 224.869 161.722C57.0413 213.06 -37.1403 391.15 13.8452 559.326Z" fill="#5233C8"/>
</svg>
