<svg width="425" height="1042" viewBox="0 0 425 1042" fill="none" xmlns="http://www.w3.org/2000/svg">
<path d="M219.421 624.097C270.761 792.273 176.225 970.363 8.3983 1021.7C-116.587 1059.94 -246.883 1017.1 -326.547 923.274C-324.069 934.604 -321.591 945.579 -318.05 956.909C-244.758 1197.31 8.75239 1332.56 248.455 1258.92C488.157 1185.63 623.056 931.063 549.764 691.013C476.473 450.963 222.962 315.36 -16.7403 389.003C-27.7164 392.544 -38.6924 396.793 -49.3143 400.687C72.8382 414.495 181.182 498.761 219.421 624.097Z" fill="#5233C8"/>
<path d="M-119.067 662.329C-2.2253 713.313 124.884 705.878 230.75 653.832C194.635 652.77 157.812 645.335 122.406 629.756C-24.8855 565.318 -92.5121 393.601 -28.4262 245.606C35.6597 97.6103 207.382 29.9857 354.673 94.4239C388.663 109.294 418.051 129.829 443.189 154.613C408.137 43.4397 327.764 -52.5094 212.693 -102.431C2.02352 -194.486 -242.99 -97.4744 -334.693 113.543C-426.042 324.914 -329.736 570.629 -119.067 662.329Z" fill="#BAE629"/>
<path d="M333.43 783.765C287.401 749.068 251.994 705.165 227.918 656.659C237.124 720.743 270.406 781.287 325.994 823.065C398.932 877.944 492.051 886.795 571.008 854.93C488.865 859.887 404.597 836.873 333.43 783.765Z" fill="#FF3399"/>
<path d="M227.919 656.671C219.067 592.941 233.938 525.67 275.718 470.083C358.923 358.556 516.482 335.896 627.659 419.453C738.835 503.01 761.495 660.919 677.936 772.447C649.257 810.685 612.08 837.947 571.008 854.588C672.271 848.215 770.701 799.355 836.203 711.195C955.169 551.87 922.949 326.337 764.328 207.02C605.707 87.7029 380.521 119.922 261.555 279.247C177.288 392.191 169.144 538.416 227.919 656.671Z" fill="#FF3399"/>
<path d="M428.32 446.365C387.602 540.544 316.081 611.709 230.751 653.842C345.823 657.028 456.645 591.174 505.506 478.584C554.721 364.932 526.042 237.117 443.19 154.622C472.224 247.385 469.745 350.415 428.32 446.365Z" fill="#BAE629"/>
</svg>
