<svg width="80" height="80" viewBox="0 0 80 80" fill="none" xmlns="http://www.w3.org/2000/svg">
<path fill-rule="evenodd" clip-rule="evenodd" d="M25.2991 6.5C25.2991 5.67157 25.9706 5 26.7991 5H30.5491C31.3775 5 32.0491 5.67157 32.0491 6.5V17.0764H52.8991V6.50011C52.8991 5.67168 53.5707 5.00011 54.3991 5.00011H58.1491C58.9775 5.00011 59.6491 5.67168 59.6491 6.50011V15.4119C59.6491 15.688 59.4252 15.9119 59.1491 15.9119C58.8729 15.9119 58.6491 15.688 58.6491 15.4119V6.50011C58.6491 6.22396 58.4252 6.00011 58.1491 6.00011H54.3991C54.1229 6.00011 53.8991 6.22396 53.8991 6.50011V17.0764H53.9002V17.5764V23.3264V23.8264H53.8991V36.6254H53.9002V37.1254V42.8754V43.3754H53.8991V56.1759H53.9002V56.6759V62.4259V62.9259H53.8991V73.4999C53.8991 73.776 54.1229 73.9999 54.3991 73.9999H58.1491C58.4252 73.9999 58.6491 73.776 58.6491 73.4999V20.9638C58.6491 20.6876 58.8729 20.4638 59.1491 20.4638C59.4252 20.4638 59.6491 20.6876 59.6491 20.9638V73.4999C59.6491 74.3283 58.9775 74.9999 58.1491 74.9999H54.3991C53.5707 74.9999 52.8991 74.3283 52.8991 73.4999V62.9259H32.0491V73.4998C32.0491 74.3282 31.3775 74.9998 30.5491 74.9998H26.8C25.971 74.9998 25.2992 74.3274 25.3 73.4984L25.3077 64.9248C25.3079 64.6486 25.532 64.425 25.8081 64.4252C26.0843 64.4255 26.3079 64.6495 26.3077 64.9257L26.3 73.4993C26.2997 73.7757 26.5237 73.9998 26.8 73.9998H30.5491C30.8252 73.9998 31.0491 73.7759 31.0491 73.4998V6.5C31.0491 6.22386 30.8252 6 30.5491 6H26.7991C26.5229 6 26.2991 6.22386 26.2991 6.5V59.3414C26.2991 59.6176 26.0752 59.8414 25.7991 59.8414C25.5229 59.8414 25.2991 59.6176 25.2991 59.3414V6.5ZM32.0491 56.1759H52.8991V43.3754H32.0491V56.1759ZM52.8991 57.1759H32.0503V61.9259H52.8991V57.1759ZM52.8991 23.8264V36.6254H32.0491V23.8264H52.8991ZM52.8991 42.3754V37.6254H32.0503V42.3754H52.8991ZM52.8991 18.0764V22.8264H32.0503V18.0764H52.8991Z" fill="white"/>
<path d="M31.1474 35.0712C31.1474 35.0712 28.2249 35.0712 26.5885 35.0712C24.6493 35.0712 21.1178 35.0712 21.1178 35.0712C21.1178 35.0712 18.9992 35.0712 17.4707 35.0712C14.4493 35.0712 12 32.6351 12 29.63C12 26.625 14.4493 24.1889 17.4707 24.1889C17.5315 24.1889 17.5921 24.1899 17.6525 24.1919C18.4961 20.0511 22.1763 16.9341 26.5885 16.9341C30.3281 16.9341 33.5419 19.1732 34.9485 22.377C38.4023 22.4583 41.177 25.2685 41.177 28.7232C41.177 32.2291 38.3195 35.0712 34.7946 35.0712C33.4125 35.0712 31.1474 35.0712 31.1474 35.0712Z" fill="#14133E" stroke="white" stroke-linejoin="round"/>
<path d="M59.051 65.036C59.051 65.036 55.6496 65.036 53.9582 65.036C52.4188 65.036 49.8839 65.036 49.8839 65.036C49.8839 65.036 48.0151 65.036 46.8282 65.036C44.578 65.036 42.7539 63.2203 42.7539 60.9805C42.7539 58.7408 44.578 56.925 46.8282 56.925C46.8523 56.925 46.8763 56.9253 46.9003 56.9257C47.3943 53.486 50.366 50.8418 53.9582 50.8418C56.901 50.8418 59.4275 52.6165 60.5163 55.1494C61.0167 54.9858 61.5513 54.8973 62.1067 54.8973C64.9194 54.8973 67.1995 57.1669 67.1995 59.9667C67.1995 62.7664 64.9194 65.036 62.1067 65.036C60.6594 65.036 59.051 65.036 59.051 65.036Z" fill="#2C2278" stroke="white" stroke-linejoin="round"/>
</svg>
