<svg width="80" height="80" viewBox="0 0 80 80" fill="none" xmlns="http://www.w3.org/2000/svg">
<path d="M73.2502 41C73.2502 39.7574 72.2429 38.75 71.0002 38.75H52.0002C47.9962 38.75 44.7502 41.9959 44.7502 46V58.25H66.0002C70.0043 58.25 73.2502 55.0041 73.2502 51V41Z" stroke="white" stroke-width="1.5"/>
<path d="M23.5002 34.5C23.5002 36.1568 22.1571 37.5 20.5002 37.5C18.8434 37.5 17.5002 36.1568 17.5002 34.5C17.5002 32.8431 18.8434 31.5 20.5002 31.5C22.1571 31.5 23.5002 32.8431 23.5002 34.5Z" stroke="white"/>
<path d="M48.5002 13C48.5002 14.3807 47.381 15.5 46.0002 15.5C44.6195 15.5 43.5002 14.3807 43.5002 13C43.5002 11.6193 44.6195 10.5 46.0002 10.5C47.381 10.5 48.5002 11.6193 48.5002 13Z" stroke="white"/>
<path d="M61.0781 47.3452C61.0781 49.2782 59.5111 50.8452 57.5781 50.8452C55.6451 50.8452 54.0781 49.2782 54.0781 47.3452C54.0781 45.4122 55.6451 43.8452 57.5781 43.8452C59.5111 43.8452 61.0781 45.4122 61.0781 47.3452Z" stroke="white"/>
<path d="M18.2998 65.1992C18.2998 66.8561 19.643 68.1992 21.2998 68.1992C22.9567 68.1992 24.2998 66.8561 24.2998 65.1992C24.2998 63.5424 22.9567 62.1992 21.2998 62.1992C19.643 62.1992 18.2998 63.5424 18.2998 65.1992Z" stroke="white"/>
<path d="M47.0002 17H45.0002C42.7911 17 41.0002 18.7909 41.0002 21H51.0002C51.0002 18.7909 49.2094 17 47.0002 17Z" fill="#E50074"/>
<path d="M64.0002 58V57C64.0002 54.2386 61.7617 52 59.0002 52H57.0002C54.2388 52 52.0002 54.2386 52.0002 57V58" stroke="white"/>
<path d="M34.7502 11C34.7502 8.1005 37.1007 5.75 40.0002 5.75H51.0002C55.0043 5.75 58.2502 8.99594 58.2502 13V16C58.2502 18.8995 55.8997 21.25 53.0002 21.25H34.7502V11Z" stroke="white" stroke-width="1.5"/>
<path d="M12.0002 45V45C12.0002 42.2386 14.2388 40 17.0002 40H20.0002C22.7617 40 25.0002 42.2386 25.0002 45V45" stroke="white"/>
<path d="M24.0004 69.5552H22.3337C19.5723 69.5552 17.3337 71.7938 17.3337 74.5552V74.9996H29.0004V74.5552C29.0004 71.7938 26.7618 69.5552 24.0004 69.5552Z" fill="#BAE629"/>
<path d="M44.0002 21L44.0002 31C44.0001 34.3137 41.3139 37 38.0002 37H33.0002" stroke="white"/>
<path d="M59.0002 58L59.0002 62.0001C59.0002 64.7615 56.7616 67 54.0002 67H36.0002" stroke="white"/>
<path d="M36.2502 62C36.2502 59.1005 33.8997 56.75 31.0002 56.75H17.5002C12.6678 56.75 8.75024 60.6675 8.75024 65.5C8.75024 70.3325 12.6678 74.25 17.5002 74.25H36.2502V62Z" stroke="white" stroke-width="1.5"/>
<path d="M58.0002 13L59.0003 13C61.7617 13.0001 64.0002 15.2406 64.0002 18.002C64.0002 25.299 64.0002 30.636 64.0002 39" stroke="white"/>
<path d="M22.0002 45V56.2" stroke="white"/>
<path d="M6.75024 38C6.75024 31.7868 11.787 26.75 18.0002 26.75H24.5002C29.3327 26.75 33.2502 30.6675 33.2502 35.5C33.2502 40.3325 29.3327 44.25 24.5002 44.25H6.75024V38Z" stroke="white" stroke-width="1.5"/>
</svg>
