<svg width="80" height="80" viewBox="0 0 80 80" fill="none" xmlns="http://www.w3.org/2000/svg">
<path d="M42.2151 21.7463H48.1652C49.2697 21.7463 50.1652 20.8509 50.1652 19.7463V16.6577C50.1652 15.5531 51.0606 14.6577 52.1652 14.6577H59.0506" stroke="white" stroke-linecap="round"/>
<path d="M42.2151 30.6073H55.3701C56.4746 30.6073 57.3701 29.7119 57.3701 28.6073V26.4048C57.3701 25.3002 58.2655 24.4048 59.3701 24.4048H69.6835" stroke="white" stroke-linecap="round"/>
<path d="M49.3042 30.6084V33.9249C49.3042 35.0294 50.1996 35.9249 51.3042 35.9249H65.2536" stroke="white" stroke-linecap="round"/>
<path d="M42.2151 44.7852H56.3923" stroke="white" stroke-linecap="round"/>
<path d="M42.2151 59.849H54.6721C55.7767 59.849 56.6721 58.9536 56.6721 57.849V55.6465C56.6721 54.5419 57.5676 53.6465 58.6721 53.6465H69.6835" stroke="white" stroke-linecap="round"/>
<path d="M49.3042 59.8481V64.0507C49.3042 65.1553 50.1996 66.0507 51.3042 66.0507H61.7093" stroke="white" stroke-linecap="round"/>
<rect x="5" y="17" width="37" height="48" rx="2" stroke="white"/>
<path d="M15 17C15 22.5228 10.5228 27 5 27" stroke="white" stroke-width="1.5"/>
<path d="M5 55C10.5228 55 15 59.4772 15 65" stroke="white" stroke-width="1.5"/>
<path d="M16 34H24" stroke="white" stroke-width="1.5" stroke-linecap="round"/>
<path d="M16 41L33 41" stroke="white" stroke-width="1.5" stroke-linecap="round"/>
<path d="M18 49L29 49" stroke="white" stroke-width="1.5" stroke-linecap="round"/>
<path d="M32 34H31" stroke="white" stroke-width="1.5" stroke-linecap="round"/>
<circle cx="61.7088" cy="14.6582" r="2.65823" fill="#BAE629" stroke="white" stroke-linecap="round"/>
<circle cx="72.3418" cy="24.4053" r="2.65823" stroke="white" stroke-width="1.5" stroke-linecap="round"/>
<circle cx="67.9114" cy="35.9243" r="2.65823" fill="#E50074" stroke="white" stroke-linecap="round"/>
<circle cx="59.0508" cy="44.7857" r="2.65823" stroke="white" stroke-width="1.5" stroke-linecap="round"/>
<circle cx="72.3418" cy="53.6455" r="2.65823" fill="#7676DD" stroke="white" stroke-linecap="round"/>
<circle cx="64.3675" cy="66.0503" r="2.65823" stroke="white" stroke-width="1.5" stroke-linecap="round"/>
</svg>
