<svg width="37" height="40" viewBox="0 0 37 40" fill="none" xmlns="http://www.w3.org/2000/svg">
<g clip-path="url(#clip0_57_49)">
<path d="M19.45 18.5C18 13.75 20.67 8.72 25.41 7.27C28.94 6.19 32.62 7.4 34.87 10.05C34.8 9.73 34.73 9.42 34.63 9.1C32.56 2.31 25.4 -1.51 18.63 0.57C11.86 2.64 8.05001 9.83 10.12 16.61C12.19 23.39 19.35 27.22 26.12 25.14C26.43 25.04 26.74 24.92 27.04 24.81C23.59 24.42 20.53 22.04 19.45 18.5Z" fill="#424895"/>
<path d="M29.0099 17.42C25.7099 15.98 22.1199 16.19 19.1299 17.66C20.1499 17.69 21.1899 17.9 22.1899 18.34C26.3499 20.16 28.2599 25.01 26.4499 29.19C24.6399 33.37 19.7899 35.28 15.6299 33.46C14.6699 33.04 13.8399 32.46 13.1299 31.76C14.1199 34.9 16.3899 37.61 19.6399 39.02C25.5899 41.62 32.5099 38.88 35.0999 32.92C37.6799 26.95 34.9599 20.01 29.0099 17.42Z" fill="#96C121"/>
<path d="M16.23 13.99C17.53 14.97 18.53 16.21 19.21 17.58C18.95 15.77 18.01 14.06 16.44 12.88C14.38 11.33 11.75 11.08 9.52002 11.98C11.84 11.84 14.22 12.49 16.23 13.99Z" fill="#E50074"/>
<path d="M19.21 17.58C19.46 19.38 19.04 21.28 17.86 22.85C15.51 26 11.06 26.64 7.91999 24.28C4.77999 21.92 4.13999 17.46 6.49999 14.31C7.30999 13.23 8.35999 12.46 9.51999 11.99C6.65999 12.17 3.87999 13.55 2.02999 16.04C-1.33001 20.54 -0.420013 26.91 4.05999 30.28C8.53999 33.65 14.9 32.74 18.26 28.24C20.64 25.05 20.87 20.92 19.21 17.58Z" fill="#E50074"/>
<path d="M13.55 23.52C14.7 20.86 16.72 18.85 19.13 17.66C15.88 17.57 12.75 19.43 11.37 22.61C9.97996 25.82 10.79 29.43 13.13 31.76C12.31 29.14 12.38 26.23 13.55 23.52Z" fill="#96C121"/>
<path d="M36.61 13.24C36.24 12.03 35.64 10.95 34.87 10.05C36.26 16.23 32.93 22.51 27.04 24.81C28.22 24.94 29.45 24.84 30.65 24.47C35.39 23.02 38.05 17.99 36.61 13.24Z" fill="#424895"/>
</g>
<defs>
<clipPath id="clip0_57_49">
<rect width="37" height="40" fill="white"/>
</clipPath>
</defs>
</svg>
