<svg width="16" height="19" viewBox="0 0 16 19" fill="none" xmlns="http://www.w3.org/2000/svg">
<path fill-rule="evenodd" clip-rule="evenodd" d="M9.9818 3.12846L15.7968 12.9402C15.9248 13.2331 15.9808 13.4712 15.9968 13.7186C16.0288 14.2967 15.8208 14.8585 15.4129 15.2909C15.005 15.7217 14.453 15.976 13.8531 16.0068H2.14312C1.89516 15.9922 1.64721 15.9375 1.41525 15.8527C0.255441 15.398 -0.304464 14.1186 0.167456 13.0096L6.02247 3.12153C6.22244 2.77394 6.52638 2.47414 6.90232 2.28146C7.99014 1.69496 9.37391 2.08031 9.9818 3.12846ZM8.69393 9.59463C8.69393 9.96457 8.38198 10.2736 7.99805 10.2736C7.61411 10.2736 7.29417 9.96457 7.29417 9.59463V7.41433C7.29417 7.04362 7.61411 6.74382 7.99805 6.74382C8.38198 6.74382 8.69393 7.04362 8.69393 7.41433V9.59463ZM7.99805 12.9094C7.61411 12.9094 7.29417 12.6004 7.29417 12.2312C7.29417 11.8605 7.61411 11.5522 7.99805 11.5522C8.38198 11.5522 8.69393 11.8536 8.69393 12.2227C8.69393 12.6004 8.38198 12.9094 7.99805 12.9094Z" fill="#E50074"/>
</svg>
